<svg width="140" height="28" viewBox="0 0 140 28" fill="none" xmlns="http://www.w3.org/2000/svg">
<path d="M0 0.81543H26.25V27.0654H0V0.81543ZM28.4375 0.81543H54.6875V27.0654H28.4375V0.81543ZM56.875 0.81543H83.125V27.0654H56.875V0.81543ZM85.3125 0.81543H111.562V27.0654H85.3125V0.81543ZM113.75 0.81543H140V27.0654H113.75V0.81543Z" fill="#00B67A"/>
<path d="M13.125 18.5073L17.1172 17.4956L18.7852 22.6362L13.125 18.5073ZM22.3125 11.8628H15.2852L13.125 5.24561L10.9648 11.8628H3.9375L9.625 15.9644L7.46484 22.5815L13.1523 18.48L16.6523 15.9644L22.3125 11.8628ZM41.5625 18.5073L45.5547 17.4956L47.2227 22.6362L41.5625 18.5073ZM50.75 11.8628H43.7227L41.5625 5.24561L39.4023 11.8628H32.375L38.0625 15.9644L35.9023 22.5815L41.5898 18.48L45.0898 15.9644L50.75 11.8628ZM70 18.5073L73.9922 17.4956L75.6602 22.6362L70 18.5073ZM79.1875 11.8628H72.1601L70 5.24561L67.8398 11.8628H60.8125L66.5 15.9644L64.3398 22.5815L70.0273 18.48L73.5273 15.9644L79.1875 11.8628ZM98.4375 18.5073L102.43 17.4956L104.098 22.6362L98.4375 18.5073ZM107.625 11.8628H100.598L98.4375 5.24561L96.2773 11.8628H89.25L94.9375 15.9644L92.7773 22.5815L98.4648 18.48L101.965 15.9644L107.625 11.8628ZM126.875 18.5073L130.867 17.4956L132.535 22.6362L126.875 18.5073ZM136.062 11.8628H129.035L126.875 5.24561L124.715 11.8628H117.687L123.375 15.9644L121.215 22.5815L126.902 18.48L130.402 15.9644L136.062 11.8628Z" fill="white"/>
</svg>
