<svg width="223" height="81" viewBox="0 0 223 81" fill="none" xmlns="http://www.w3.org/2000/svg">
<g clip-path="url(#clip0_2122_2127)">
<path d="M116.52 60.3164H136.359V80.1557H116.52V60.3164ZM138.012 60.3164H157.851V80.1557H138.012V60.3164ZM159.505 60.3164H179.344V80.1557H159.505V60.3164ZM180.997 60.3164H200.837V80.1557H180.997V60.3164ZM202.49 60.3164H222.329V80.1557H202.49V60.3164Z" fill="#00B67A"/>
<path d="M126.438 73.687L129.455 72.9224L130.716 76.8076L126.438 73.687ZM133.382 68.6652H128.071L126.438 63.6641L124.806 68.6652H119.494L123.793 71.7651L122.16 76.7663L126.459 73.6664L129.104 71.7651L133.382 68.6652ZM147.931 73.687L150.948 72.9224L152.209 76.8076L147.931 73.687ZM154.874 68.6652H149.563L147.931 63.6641L146.298 68.6652H140.987L145.285 71.7651L143.653 76.7663L147.951 73.6664L150.597 71.7651L154.874 68.6652ZM169.423 73.687L172.441 72.9224L173.701 76.8076L169.423 73.687ZM176.367 68.6652H171.056L169.423 63.6641L167.791 68.6652H162.48L166.778 71.7651L165.145 76.7663L169.444 73.6664L172.089 71.7651L176.367 68.6652ZM190.916 73.687L193.933 72.9224L195.194 76.8076L190.916 73.687ZM197.86 68.6652H192.549L190.916 63.6641L189.283 68.6652H183.972L188.271 71.7651L186.638 76.7663L190.937 73.6664L193.582 71.7651L197.86 68.6652ZM212.408 73.687L215.426 72.9224L216.686 76.8076L212.408 73.687ZM219.352 68.6652H214.041L212.408 63.6641L210.776 68.6652H205.465L209.763 71.7651L208.131 76.7663L212.429 73.6664L215.074 71.7651L219.352 68.6652Z" fill="white"/>
<path d="M58.4355 19.8438H80.9277V24.031H72.0716V47.6355H67.2175V24.031H58.3984L58.4355 19.8438ZM79.9643 27.5142H84.1145V31.4051H84.1886C84.3368 30.8493 84.5962 30.3305 84.9667 29.8117C85.3373 29.2929 85.7819 28.8112 86.3378 28.4036C86.8565 27.9589 87.4494 27.6253 88.1164 27.3659C88.7463 27.1065 89.4133 26.9584 90.0803 26.9584C90.5991 26.9584 90.9696 26.9955 91.1549 26.9955C91.3401 27.0325 91.5625 27.0695 91.7478 27.0695V31.3309C91.4513 31.2568 91.1178 31.2198 90.7843 31.1828C90.4508 31.1457 90.1544 31.1087 89.8209 31.1087C89.0798 31.1087 88.3758 31.2569 87.7088 31.5533C87.0418 31.8498 86.486 32.2944 85.9672 32.8503C85.4855 33.4431 85.0779 34.1472 84.7814 34.9995C84.485 35.8518 84.3368 36.8523 84.3368 37.9639V47.5243H79.8902L79.9643 27.5142ZM112.128 47.6355H107.756V44.8191H107.682C107.126 45.8567 106.311 46.635 105.236 47.2649C104.162 47.8948 103.05 48.1912 101.938 48.1912C99.3069 48.1912 97.3801 47.5612 96.1943 46.2272C95.0086 44.9303 94.4157 42.9294 94.4157 40.2984V27.5142H98.8623V39.8538C98.8623 41.6324 99.1958 42.8923 99.8998 43.5964C100.567 44.3375 101.531 44.708 102.754 44.708C103.68 44.708 104.458 44.5598 105.088 44.2634C105.718 43.9669 106.237 43.5964 106.607 43.1147C107.015 42.6329 107.274 42.0401 107.459 41.373C107.645 40.706 107.719 39.9648 107.719 39.1867V27.5142H112.165V47.6355H112.128ZM119.688 41.1878C119.836 42.4847 120.318 43.3741 121.17 43.9299C122.022 44.4487 123.06 44.708 124.245 44.708C124.653 44.708 125.135 44.671 125.653 44.5969C126.172 44.5228 126.691 44.4115 127.136 44.2262C127.617 44.041 127.988 43.7816 128.284 43.411C128.581 43.0405 128.729 42.5959 128.692 42.0401C128.655 41.4842 128.47 41.0025 128.062 40.6319C127.654 40.2614 127.173 40.0019 126.58 39.7425C125.987 39.5202 125.283 39.3349 124.505 39.1867C123.727 39.0384 122.948 38.8532 122.133 38.6679C121.318 38.4826 120.503 38.2603 119.725 38.0009C118.946 37.7415 118.279 37.408 117.65 36.9263C117.057 36.4816 116.538 35.9259 116.204 35.2218C115.834 34.5178 115.649 33.7025 115.649 32.665C115.649 31.5533 115.908 30.6639 116.464 29.9228C116.983 29.1817 117.687 28.5888 118.502 28.1441C119.317 27.6994 120.243 27.3659 121.244 27.1807C122.244 26.9954 123.208 26.9214 124.097 26.9214C125.135 26.9214 126.135 27.0325 127.061 27.2549C127.988 27.4772 128.877 27.8107 129.618 28.3295C130.396 28.8112 131.026 29.4781 131.508 30.2563C132.027 31.0344 132.323 31.9979 132.471 33.1096H127.84C127.617 32.0349 127.136 31.331 126.395 30.9604C125.616 30.5899 124.764 30.4046 123.764 30.4046C123.467 30.4046 123.06 30.4416 122.652 30.4787C122.207 30.5528 121.837 30.6269 121.429 30.7752C121.059 30.9234 120.725 31.1457 120.466 31.4051C120.206 31.6645 120.058 32.035 120.058 32.4797C120.058 33.0355 120.243 33.4431 120.614 33.7766C120.984 34.1102 121.466 34.3694 122.096 34.6288C122.689 34.8512 123.393 35.0364 124.171 35.1847C124.949 35.3329 125.765 35.5182 126.58 35.7034C127.395 35.8887 128.173 36.1111 128.951 36.3704C129.729 36.6298 130.433 36.9634 131.026 37.4452C131.619 37.8898 132.138 38.4457 132.509 39.1127C132.879 39.7797 133.064 40.6319 133.064 41.5954C133.064 42.7812 132.805 43.7817 132.249 44.6339C131.693 45.4492 130.989 46.1532 130.137 46.672C129.285 47.1908 128.284 47.5613 127.247 47.8207C126.172 48.0431 125.135 48.1912 124.097 48.1912C122.837 48.1912 121.651 48.0431 120.577 47.7466C119.502 47.4502 118.539 47.0054 117.761 46.4496C116.983 45.8567 116.353 45.1527 115.908 44.2634C115.463 43.4111 115.204 42.3736 115.167 41.1507H119.651V41.1878H119.688ZM134.324 27.5142H137.696V21.437H142.143V27.4771H146.145V30.7752H142.143V41.5213C142.143 42.003 142.18 42.3735 142.217 42.744C142.254 43.0775 142.365 43.3741 142.476 43.5964C142.625 43.8187 142.847 44.004 143.106 44.1152C143.403 44.2263 143.773 44.3004 144.292 44.3004C144.588 44.3004 144.922 44.3004 145.218 44.2634C145.515 44.2263 145.848 44.1893 146.145 44.1152V47.5612C145.663 47.6354 145.181 47.6724 144.7 47.7095C144.218 47.7836 143.773 47.7836 143.254 47.7836C142.069 47.7836 141.142 47.6724 140.438 47.4501C139.734 47.2277 139.178 46.8942 138.771 46.4866C138.363 46.042 138.104 45.5232 137.956 44.8932C137.807 44.2633 137.733 43.4851 137.696 42.6699V30.8122H134.324V27.4401V27.5142ZM149.257 27.5142H153.445V30.2563H153.519C154.149 29.0705 155.001 28.2554 156.112 27.7366C157.224 27.2178 158.41 26.9584 159.744 26.9584C161.337 26.9584 162.708 27.2177 163.894 27.8106C165.08 28.3664 166.043 29.1076 166.821 30.1081C167.599 31.0716 168.192 32.2203 168.563 33.5173C168.933 34.8142 169.156 36.2222 169.156 37.6674C169.156 39.0385 168.97 40.3355 168.637 41.5954C168.266 42.8553 167.748 44.0039 167.044 44.9674C166.34 45.9309 165.45 46.709 164.339 47.3018C163.227 47.8947 161.967 48.1912 160.485 48.1912C159.855 48.1912 159.188 48.1172 158.558 48.006C157.928 47.8948 157.298 47.7095 156.705 47.4501C156.112 47.1907 155.557 46.8572 155.075 46.4496C154.556 46.042 154.149 45.5602 153.815 45.0415H153.741V55.0835H149.294V27.5142H149.257ZM164.783 37.5933C164.783 36.704 164.672 35.8146 164.413 34.9623C164.19 34.1101 163.82 33.369 163.338 32.702C162.856 32.035 162.264 31.5163 161.597 31.1087C160.893 30.701 160.077 30.5158 159.188 30.5158C157.335 30.5158 155.927 31.1456 154.964 32.4426C154.037 33.7395 153.556 35.4812 153.556 37.6304C153.556 38.668 153.667 39.5944 153.926 40.4467C154.186 41.2989 154.519 42.04 155.038 42.6699C155.52 43.2998 156.112 43.7816 156.817 44.1521C157.521 44.5227 158.299 44.708 159.225 44.708C160.263 44.708 161.078 44.4856 161.782 44.078C162.486 43.6704 163.042 43.1146 163.523 42.4846C163.968 41.8176 164.302 41.0766 164.487 40.2243C164.672 39.335 164.783 38.4826 164.783 37.5933ZM172.602 19.8438H177.048V24.031H172.602V19.8438ZM172.602 27.5142H177.048V47.6355H172.602V27.5142ZM181.013 19.8438H185.46V47.6355H181.013V19.8438ZM199.022 48.1912C197.429 48.1912 195.983 47.9318 194.724 47.376C193.464 46.8201 192.426 46.1162 191.537 45.1898C190.685 44.2634 190.018 43.1146 189.573 41.8176C189.128 40.5207 188.869 39.0756 188.869 37.5563C188.869 36.037 189.091 34.6289 189.573 33.332C190.018 32.035 190.685 30.9234 191.537 29.9599C192.389 29.0335 193.464 28.2924 194.724 27.7736C195.983 27.2549 197.429 26.9584 199.022 26.9584C200.615 26.9584 202.06 27.2178 203.32 27.7736C204.58 28.2924 205.618 29.0335 206.507 29.9599C207.359 30.8863 208.026 32.035 208.471 33.332C208.916 34.6289 209.175 36.037 209.175 37.5563C209.175 39.1127 208.953 40.5207 208.471 41.8176C207.989 43.1146 207.359 44.2263 206.507 45.1898C205.655 46.1162 204.58 46.8572 203.32 47.376C202.06 47.8947 200.652 48.1912 199.022 48.1912ZM199.022 44.671C199.985 44.671 200.875 44.4486 201.579 44.041C202.32 43.6333 202.876 43.0775 203.357 42.4105C203.839 41.7435 204.173 40.9654 204.395 40.1502C204.617 39.2979 204.728 38.4457 204.728 37.5563C204.728 36.704 204.617 35.8518 204.395 34.9995C204.173 34.1472 203.839 33.4061 203.357 32.7391C202.876 32.0721 202.283 31.5533 201.579 31.1457C200.838 30.7381 199.985 30.5158 199.022 30.5158C198.058 30.5158 197.169 30.7381 196.465 31.1457C195.724 31.5533 195.168 32.1092 194.687 32.7391C194.205 33.4061 193.871 34.1472 193.649 34.9995C193.427 35.8518 193.315 36.704 193.315 37.5563C193.315 38.4457 193.427 39.2979 193.649 40.1502C193.871 41.0025 194.205 41.7435 194.687 42.4105C195.168 43.0775 195.761 43.6333 196.465 44.041C197.206 44.4856 198.058 44.671 199.022 44.671ZM210.509 27.5142H213.881V21.437H218.327V27.4771H222.329V30.7752H218.327V41.5213C218.327 42.003 218.365 42.3735 218.402 42.744C218.439 43.0775 218.55 43.3741 218.661 43.5964C218.809 43.8187 219.032 44.004 219.291 44.1152C219.587 44.2263 219.958 44.3004 220.477 44.3004C220.773 44.3004 221.107 44.3004 221.403 44.2634C221.699 44.2263 222.033 44.1893 222.329 44.1152V47.5612C221.848 47.6354 221.366 47.6724 220.884 47.7095C220.403 47.7836 219.958 47.7836 219.439 47.7836C218.253 47.7836 217.327 47.6724 216.623 47.4501C215.919 47.2277 215.363 46.8942 214.955 46.4866C214.548 46.042 214.289 45.5232 214.14 44.8932C213.992 44.2633 213.918 43.4851 213.881 42.6699V30.8122H210.509V27.4401V27.5142Z" fill="black"/>
<path d="M53.2477 19.843H32.9046L26.6424 0.5L20.343 19.843L0 19.806L16.4523 31.7749L10.153 51.118L26.6053 39.149L43.0576 51.118L36.7954 31.7749L53.2477 19.843Z" fill="#00B67A"/>
<path d="M38.2017 36.1498L36.7936 31.7773L26.6406 39.1513L38.2017 36.1498Z" fill="#005128"/>
<path d="M98.8846 77.7443C97.9376 77.7443 97.0901 77.5668 96.342 77.2116C95.5939 76.8518 94.9996 76.3594 94.5593 75.7344C94.1237 75.1094 93.8917 74.3944 93.8633 73.5895H96.4201C96.4674 74.1861 96.7255 74.6738 97.1942 75.0526C97.663 75.4266 98.2264 75.6136 98.8846 75.6136C99.4007 75.6136 99.86 75.4953 100.262 75.2585C100.665 75.0218 100.982 74.6927 101.214 74.2713C101.446 73.8499 101.56 73.3693 101.555 72.8295C101.56 72.2803 101.444 71.7926 101.207 71.3665C100.97 70.9403 100.646 70.6065 100.234 70.3651C99.8221 70.1188 99.3486 69.9957 98.8136 69.9957C98.378 69.991 97.9495 70.0715 97.5281 70.2372C97.1067 70.4029 96.7728 70.6207 96.5266 70.8906L94.1474 70.5L94.9073 63H103.345V65.2017H97.0877L96.6687 69.0582H96.7539C97.0238 68.741 97.4049 68.4782 97.8974 68.2699C98.3898 68.0568 98.9296 67.9503 99.5167 67.9503C100.397 67.9503 101.183 68.1586 101.875 68.5753C102.566 68.9872 103.11 69.5554 103.508 70.2798C103.906 71.0043 104.105 71.8329 104.105 72.7656C104.105 73.7268 103.882 74.5838 103.437 75.3366C102.997 76.0848 102.384 76.6742 101.598 77.1051C100.816 77.5313 99.9121 77.7443 98.8846 77.7443Z" fill="black"/>
<path d="M89.8146 77.7006C89.3837 77.7006 89.0144 77.5491 88.7066 77.2461C88.3988 76.9431 88.2473 76.5737 88.2521 76.1381C88.2473 75.712 88.3988 75.3474 88.7066 75.0444C89.0144 74.7414 89.3837 74.5898 89.8146 74.5898C90.2312 74.5898 90.5934 74.7414 90.9012 75.0444C91.2137 75.3474 91.3723 75.712 91.3771 76.1381C91.3723 76.427 91.2966 76.6898 91.1498 76.9265C91.0077 77.1632 90.8183 77.3526 90.5816 77.4947C90.3496 77.632 90.0939 77.7006 89.8146 77.7006Z" fill="black"/>
<path d="M75.0293 74.8466V72.7514L81.2012 63H82.9483V65.983H81.883L77.7282 72.5668V72.6804H86.3432V74.8466H75.0293ZM81.9682 77.5455V74.2074L81.9966 73.2699V63H84.4824V77.5455H81.9682Z" fill="black"/>
</g>
<defs>
<clipPath id="clip0_2122_2127">
<rect width="223" height="80" fill="white" transform="translate(0 0.5)"/>
</clipPath>
</defs>
</svg>
