<svg width="162" height="26" viewBox="0 0 162 26" fill="none" xmlns="http://www.w3.org/2000/svg">
<path d="M14.2553 0.816211L17.1877 7.02945C17.3917 7.46159 17.7859 7.76102 18.2421 7.83021L24.7996 8.82662C25.9483 9.00129 26.4065 10.4769 25.5757 11.3236L20.8307 16.1599C20.5009 16.4962 20.3502 16.9811 20.4283 17.4557L21.5482 24.2849C21.7445 25.4809 20.5438 26.3928 19.5166 25.8285L13.6516 22.6045C13.2438 22.3805 12.7562 22.3805 12.3484 22.6045L6.48343 25.8285C5.45622 26.3934 4.25547 25.4809 4.4518 24.2849L5.57174 17.4557C5.64984 16.9811 5.49907 16.4962 5.16932 16.1599L0.424327 11.3236C-0.406548 10.4763 0.0517348 9.00072 1.20043 8.82662L7.75794 7.83021C8.21406 7.76102 8.60835 7.46159 8.81227 7.02945L11.7447 0.816211C12.2578 -0.27207 13.7417 -0.27207 14.2553 0.816211Z" fill="#ED8A19"/>
<path d="M48.2553 0.816211L51.1877 7.02945C51.3917 7.46159 51.7859 7.76102 52.2421 7.83021L58.7996 8.82662C59.9483 9.00129 60.4065 10.4769 59.5757 11.3236L54.8307 16.1599C54.5009 16.4962 54.3502 16.9811 54.4283 17.4557L55.5482 24.2849C55.7445 25.4809 54.5438 26.3928 53.5166 25.8285L47.6516 22.6045C47.2438 22.3805 46.7562 22.3805 46.3484 22.6045L40.4834 25.8285C39.4562 26.3934 38.2555 25.4809 38.4518 24.2849L39.5717 17.4557C39.6498 16.9811 39.4991 16.4962 39.1693 16.1599L34.4243 11.3236C33.5935 10.4763 34.0517 9.00072 35.2004 8.82662L41.7579 7.83021C42.2141 7.76102 42.6083 7.46159 42.8123 7.02945L45.7447 0.816211C46.2578 -0.27207 47.7417 -0.27207 48.2553 0.816211Z" fill="#ED8A19"/>
<path d="M82.2553 0.816211L85.1877 7.02945C85.3917 7.46159 85.7859 7.76102 86.2421 7.83021L92.7996 8.82662C93.9483 9.00129 94.4065 10.4769 93.5757 11.3236L88.8307 16.1599C88.5009 16.4962 88.3502 16.9811 88.4283 17.4557L89.5482 24.2849C89.7445 25.4809 88.5438 26.3928 87.5166 25.8285L81.6516 22.6045C81.2438 22.3805 80.7562 22.3805 80.3484 22.6045L74.4834 25.8285C73.4562 26.3934 72.2555 25.4809 72.4518 24.2849L73.5717 17.4557C73.6498 16.9811 73.4991 16.4962 73.1693 16.1599L68.4243 11.3236C67.5935 10.4763 68.0517 9.00072 69.2004 8.82662L75.7579 7.83021C76.2141 7.76102 76.6083 7.46159 76.8123 7.02945L79.7447 0.816211C80.2578 -0.27207 81.7417 -0.27207 82.2553 0.816211Z" fill="#ED8A19"/>
<path d="M116.255 0.816211L119.188 7.02945C119.392 7.46159 119.786 7.76102 120.242 7.83021L126.8 8.82662C127.948 9.00129 128.407 10.4769 127.576 11.3236L122.831 16.1599C122.501 16.4962 122.35 16.9811 122.428 17.4557L123.548 24.2849C123.745 25.4809 122.544 26.3928 121.517 25.8285L115.652 22.6045C115.244 22.3805 114.756 22.3805 114.348 22.6045L108.483 25.8285C107.456 26.3934 106.255 25.4809 106.452 24.2849L107.572 17.4557C107.65 16.9811 107.499 16.4962 107.169 16.1599L102.424 11.3236C101.593 10.4763 102.052 9.00072 103.2 8.82662L109.758 7.83021C110.214 7.76102 110.608 7.46159 110.812 7.02945L113.745 0.816211C114.258 -0.27207 115.742 -0.27207 116.255 0.816211Z" fill="#ED8A19"/>
<path d="M150.255 0.816211L153.188 7.02945C153.392 7.46159 153.786 7.76102 154.242 7.83021L160.8 8.82662C161.948 9.00129 162.407 10.4769 161.576 11.3236L156.831 16.1599C156.501 16.4962 156.35 16.9811 156.428 17.4557L157.548 24.2849C157.745 25.4809 156.544 26.3928 155.517 25.8285L149.652 22.6045C149.244 22.3805 148.756 22.3805 148.348 22.6045L142.483 25.8285C141.456 26.3934 140.255 25.4809 140.452 24.2849L141.572 17.4557C141.65 16.9811 141.499 16.4962 141.169 16.1599L136.424 11.3236C135.593 10.4763 136.052 9.00072 137.2 8.82662L143.758 7.83021C144.214 7.76102 144.608 7.46159 144.812 7.02945L147.745 0.816211C148.258 -0.27207 149.742 -0.27207 150.255 0.816211Z" fill="#ED8A19"/>
</svg>
